<svg width="15" height="22" viewBox="0 0 15 22" fill="none" xmlns="http://www.w3.org/2000/svg">
<path d="M9.94024 13.0069L11.0488 13.1186V21.7812L7.98672 18.6423V13.6484L8.87608 14.0653L9.94024 13.0069ZM5.05986 13.0069L3.95068 13.1186V21.7812L7.01274 18.6423V13.6484L6.12344 14.0653L5.05986 13.0069ZM13.4573 7.57972L13.8161 8.7785L12.7392 9.47553L12.649 10.721L11.3887 11.0222L10.8612 12.1619L9.56924 12.0309L8.66714 12.9256L7.50005 12.3783L6.33296 12.9256L5.43086 12.028L4.13887 12.159L3.61138 11.0193L2.35112 10.721L2.26094 9.47727L1.18096 8.77789L1.53975 7.57916L0.77832 6.56928L1.54219 5.56053L1.18096 4.36414L2.2585 3.66711L2.34868 2.42328L3.61138 2.12506L4.13887 0.985391L5.43086 1.11636L6.33296 0.21875L7.50005 0.766109L8.66714 0.21875L9.56924 1.11636L10.8612 0.985391L11.3887 2.12506L12.649 2.42623L12.7392 3.67002L13.8161 4.36705L13.4573 5.56583L14.2218 6.56928L13.4573 7.57972ZM11.0543 6.56928C11.0543 5.89953 10.8474 5.24481 10.4598 4.68793C10.0722 4.13105 9.52131 3.69701 8.87675 3.44071C8.23219 3.1844 7.52294 3.11734 6.83869 3.248C6.15443 3.37867 5.5259 3.70119 5.03258 4.17477C4.53926 4.64836 4.2033 5.25175 4.06719 5.90864C3.93109 6.56552 4.00094 7.24641 4.26792 7.86518C4.53491 8.48395 4.98703 9.01283 5.56711 9.38492C6.1472 9.75702 6.8292 9.95563 7.52686 9.95563C8.46194 9.95422 9.35831 9.597 10.0195 8.96224C10.6807 8.32748 11.0528 7.46697 11.0543 6.56928ZM7.52686 4.11852C7.02196 4.11852 6.52839 4.26225 6.10858 4.53153C5.68877 4.80082 5.36157 5.18357 5.16835 5.63137C4.97513 6.07918 4.92457 6.57194 5.02307 7.04733C5.12157 7.52272 5.3647 7.9594 5.72171 8.30214C6.07873 8.64488 6.5336 8.87829 7.02879 8.97286C7.52399 9.06742 8.03728 9.0189 8.50375 8.83342C8.97022 8.64793 9.36892 8.33383 9.64944 7.93081C9.92995 7.5278 10.0797 7.05399 10.0797 6.56928C10.0778 5.92004 9.80812 5.29795 9.32973 4.83903C8.85135 4.38011 8.20315 4.12169 7.52686 4.1203V4.11852Z" fill="#838286"/>
</svg>
