<svg width="25" height="16" viewBox="0 0 25 16" fill="none" xmlns="http://www.w3.org/2000/svg">
<path d="M3.55304 13.496H21.4463C22.282 13.496 22.9617 12.8442 22.9617 12.0413V2.06781C22.9617 1.2649 22.2813 0.612793 21.4463 0.612793H3.55304C2.71771 0.612793 2.03809 1.2649 2.03809 2.06781V12.0413C2.03728 12.8442 2.71771 13.496 3.55304 13.496ZM2.85299 2.06781C2.85299 1.69672 3.16683 1.39476 3.55292 1.39476H21.4462C21.8329 1.39476 22.1463 1.69672 22.1463 2.06781V12.0413C22.1463 12.4124 21.8328 12.7147 21.4462 12.7147H3.55304C3.16683 12.7147 2.8531 12.4123 2.8531 12.0413L2.85299 2.06781Z" fill="#838286"/>
<path d="M14.8095 13.8994V14.4756H10.1905V13.8994H0C0 14.7198 0.497597 15.3872 1.10773 15.3872H23.8924C24.5024 15.3872 25.0001 14.7193 25.0001 13.8994H14.8095Z" fill="#838286"/>
<path d="M10.1773 9.35172C10.1773 8.57584 9.24606 7.5266 7.98862 7.22066C8.51403 6.88192 8.876 6.21186 8.876 5.6094C8.876 4.75884 8.15841 4.06873 7.27183 4.06873C6.38594 4.06873 5.66765 4.75895 5.66765 5.6094C5.66765 6.21197 6.02963 6.88192 6.55354 7.22066C5.29864 7.52671 4.3667 8.57584 4.3667 9.35172C4.36728 10.2693 10.1773 10.2693 10.1773 9.35172ZM7.14313 7.66832H7.13574L6.87038 7.37446C6.99977 7.419 7.13228 7.44671 7.27241 7.44671C7.41299 7.44671 7.5455 7.42033 7.67478 7.37612L7.40838 7.66832H7.40203L8.088 9.25875L7.27229 10.0401L6.45774 9.25875L7.14313 7.66832Z" fill="#838286"/>
<path d="M11.1037 3.63884H20.2838C20.4778 3.63884 20.6325 3.48969 20.6325 3.30442C20.6325 3.11926 20.4772 2.96912 20.2838 2.96912H11.1037C10.91 2.96912 10.7554 3.11993 10.7554 3.30442C10.7547 3.4898 10.91 3.63884 11.1037 3.63884Z" fill="#838286"/>
<path d="M11.1037 5.514H20.2838C20.4778 5.514 20.6325 5.36418 20.6325 5.17958C20.6325 4.99364 20.4772 4.8446 20.2838 4.8446H11.1037C10.91 4.8446 10.7554 4.99442 10.7554 5.17958C10.7547 5.36496 10.91 5.514 11.1037 5.514Z" fill="#838286"/>
<path d="M11.1037 7.3894H20.2838C20.4778 7.3894 20.6325 7.23925 20.6325 7.05531C20.6325 6.86982 20.4772 6.72034 20.2838 6.72034H11.1037C10.91 6.72034 10.7554 6.87048 10.7554 7.05531C10.7547 7.23925 10.91 7.3894 11.1037 7.3894Z" fill="#838286"/>
<path d="M11.1037 9.26539H20.2838C20.4778 9.26539 20.6325 9.11558 20.6325 8.93064C20.6325 8.74437 20.4772 8.59534 20.2838 8.59534H11.1037C10.91 8.59534 10.7554 8.74581 10.7554 8.93064C10.7547 9.11558 10.91 9.26539 11.1037 9.26539Z" fill="#838286"/>
<path d="M11.1037 11.1412H15.5875C15.7801 11.1412 15.9347 10.99 15.9347 10.8064C15.9347 10.6202 15.7787 10.4717 15.5875 10.4717H11.1037C10.91 10.4717 10.7554 10.6216 10.7554 10.8064C10.7547 10.9899 10.91 11.1412 11.1037 11.1412Z" fill="#838286"/>
</svg>
