<svg width="16" height="18" viewBox="0 0 16 18" fill="none" xmlns="http://www.w3.org/2000/svg">
<path d="M8.99998 1.00133C9.00019 0.448527 8.55265 0.000216603 8.00037 7.81934e-08C7.44808 -0.000216077 7.00019 0.447744 6.99997 1.00055L6.99684 9.0115C6.99663 9.5643 7.44417 10.0126 7.99645 10.0128C8.54874 10.013 8.99663 9.56509 8.99684 9.01228L8.99998 1.00133Z" fill="#838286"/>
<path d="M0 9.9925C0 7.78132 0.895405 5.77947 2.34308 4.3304L3.7573 5.74594C2.67155 6.83274 2 8.33412 2 9.9925C2 13.3093 4.68629 15.9981 8 15.9981C11.3137 15.9981 14 13.3093 14 9.9925C14 8.33408 13.3284 6.83267 12.2426 5.74587L13.6568 4.33033C15.1046 5.7794 16 7.78128 16 9.9925C16 14.4149 12.4183 18 8 18C3.58172 18 0 14.4149 0 9.9925Z" fill="#838286"/>
</svg>
