<svg width="23" height="22" viewBox="0 0 23 22" fill="none" xmlns="http://www.w3.org/2000/svg">
<path d="M20.1978 7.92293L19.8164 7.7192C19.7572 7.68756 19.728 7.67169 19.6994 7.65524C19.4149 7.49165 19.1752 7.26564 19.0002 6.99523C18.9826 6.96802 18.966 6.93949 18.9321 6.8831C18.8982 6.82677 18.881 6.79823 18.8652 6.76998C18.7083 6.48866 18.6234 6.17515 18.6183 5.85606C18.6178 5.82398 18.6179 5.79121 18.6191 5.72604L18.6266 5.30078C18.6384 4.62025 18.6445 4.27894 18.5448 3.97262C18.4564 3.70053 18.3083 3.44993 18.1106 3.23725C17.8872 2.99685 17.5778 2.82534 16.9585 2.48276L16.4442 2.1982C15.8267 1.85658 15.5178 1.68571 15.1899 1.62057C14.8999 1.56294 14.6005 1.56561 14.3116 1.62789C13.9853 1.69819 13.6803 1.87351 13.0707 2.22396L13.0672 2.22555L12.6986 2.43741C12.6404 2.47091 12.6109 2.48779 12.5817 2.50338C12.2918 2.6581 11.9682 2.74365 11.6367 2.75387C11.6033 2.7549 11.5693 2.7549 11.5014 2.7549C11.4339 2.7549 11.3983 2.7549 11.365 2.75387C11.0328 2.74361 10.7085 2.65759 10.4182 2.50224C10.389 2.48658 10.36 2.46956 10.3017 2.4359L9.93073 2.22213C9.31689 1.86836 9.00953 1.69121 8.68153 1.62057C8.39135 1.55807 8.09101 1.55634 7.7999 1.61471C7.47121 1.68062 7.16226 1.85276 6.54435 2.19703L6.5416 2.1982L6.03362 2.48124L6.028 2.48454C5.41566 2.82572 5.10876 2.99672 4.88719 3.23614C4.69056 3.4486 4.54359 3.69881 4.45562 3.97018C4.35619 4.27691 4.36149 4.61896 4.37347 5.3027L4.38091 5.72736C4.38204 5.79166 4.384 5.82362 4.38351 5.85525C4.37857 6.17499 4.29256 6.48914 4.13514 6.77096C4.11958 6.79883 4.10281 6.8267 4.06931 6.88237C4.03579 6.93809 4.01955 6.96579 4.00217 6.99268C3.82641 7.26452 3.58556 7.49186 3.2993 7.65572C3.27099 7.67193 3.24114 7.68752 3.18251 7.71871L2.80588 7.91908C2.17925 8.25245 1.86601 8.41928 1.63808 8.65669C1.43644 8.86672 1.28411 9.1158 1.19113 9.3872C1.08603 9.6939 1.08611 10.0378 1.08775 10.7255L1.08907 11.2877C1.09069 11.9708 1.0929 12.3122 1.19825 12.6168C1.29145 12.8863 1.44265 13.134 1.64316 13.3427C1.86981 13.5787 2.17994 13.7445 2.80181 14.0766L3.17508 14.276C3.23861 14.3099 3.27058 14.3266 3.30122 14.3444C3.58487 14.5083 3.82384 14.735 3.9981 15.0053C4.01692 15.0345 4.035 15.0648 4.07114 15.1255C4.10683 15.1853 4.12509 15.2152 4.1416 15.2452C4.29438 15.5229 4.37619 15.8315 4.38176 16.1455C4.38236 16.1794 4.38185 16.2137 4.38063 16.2827L4.37347 16.6902C4.3614 17.3763 4.35614 17.7197 4.45616 18.0273C4.54465 18.2994 4.69254 18.55 4.89024 18.7627C5.1137 19.0031 5.42349 19.1745 6.04278 19.5171L6.55706 19.8015C7.17461 20.1432 7.48328 20.3138 7.81113 20.379C8.10118 20.4366 8.40066 20.4344 8.68967 20.3721C9.01632 20.3017 9.32237 20.1258 9.93375 19.7743L10.3023 19.5625C10.3606 19.5289 10.3902 19.5121 10.4194 19.4965C10.7093 19.3418 11.0325 19.2558 11.3641 19.2456C11.3974 19.2446 11.4315 19.2446 11.4994 19.2446C11.5675 19.2446 11.6015 19.2446 11.6349 19.2456C11.9671 19.2559 12.2924 19.3422 12.5827 19.4975C12.6082 19.5112 12.6339 19.526 12.6787 19.5519L13.0706 19.7777C13.6845 20.1315 13.9912 20.3081 14.3193 20.3788C14.6094 20.4413 14.91 20.4438 15.2011 20.3855C15.5297 20.3196 15.8393 20.1471 16.4569 19.803L16.9725 19.5157C17.5852 19.1743 17.8924 19.0031 18.1141 18.7636C18.3107 18.5512 18.4579 18.3011 18.5458 18.0297C18.6446 17.7252 18.6386 17.3858 18.6268 16.7119L18.6191 16.2724C18.6179 16.2081 18.6178 16.1761 18.6183 16.1445C18.6232 15.8247 18.7078 15.5104 18.8652 15.2286C18.8808 15.2007 18.8977 15.1726 18.931 15.1171C18.9646 15.0615 18.982 15.0337 18.9994 15.0068C19.1751 14.7349 19.4161 14.5074 19.7025 14.3435C19.7304 14.3275 19.7593 14.3122 19.8165 14.2818L19.8184 14.2809L20.195 14.0805C20.8217 13.7472 21.1355 13.5801 21.3634 13.3427C21.5651 13.1327 21.7172 12.8839 21.8102 12.6126C21.9147 12.3077 21.9139 11.9658 21.9123 11.2861L21.9109 10.7119C21.9093 10.0287 21.9084 9.6874 21.8031 9.3828C21.7099 9.1133 21.5578 8.86561 21.3573 8.65685C21.1309 8.42111 20.8203 8.25526 20.1997 7.92378L20.1978 7.92293Z" stroke="#838286" stroke-width="1.5" stroke-linecap="round" stroke-linejoin="round"/>
<path d="M7.3335 11C7.3335 13.2091 9.19898 15 11.5001 15C13.8014 15 15.6668 13.2091 15.6668 11C15.6668 8.79086 13.8014 7 11.5001 7C9.19898 7 7.3335 8.79086 7.3335 11Z" stroke="#838286" stroke-width="1.5" stroke-linecap="round" stroke-linejoin="round"/>
</svg>
