<svg width="24" height="18" viewBox="0 0 24 18" fill="none" xmlns="http://www.w3.org/2000/svg">
<path d="M14.8913 15.0488L14.9056 15.0317C15.2972 15.3766 15.7843 15.6146 16.3218 15.7002L16.4845 15.7212L16.4841 17.4325C15.4821 17.3702 14.5683 16.9798 13.8478 16.3668L13.7063 16.2413L14.8913 15.0488ZM18.7065 14.9606L19.8625 16.1231C19.8784 16.1388 19.8943 16.1515 19.9119 16.1617C19.2054 16.8492 18.2768 17.3072 17.2449 17.4161L17.0503 17.4325L17.0499 15.7212C17.6885 15.6574 18.2647 15.3798 18.7065 14.9606ZM13.9387 13.1763L13.9542 13.1749C14.0014 13.6557 14.1677 14.1014 14.423 14.4815L14.5229 14.621L14.4915 14.6467L13.3146 15.8308C12.7445 15.1539 12.3677 14.3073 12.2696 13.3769L12.2529 13.1763L13.9387 13.1763ZM19.5802 13.1749L19.5956 13.1763L21.2814 13.1763C21.2258 14.0837 20.9057 14.9192 20.3976 15.6057L20.2859 15.7505L20.2623 15.721L19.0781 14.5299C19.3522 14.1394 19.531 13.6763 19.5802 13.1749ZM16.7672 10.6173C18.0162 10.6173 19.0286 11.6357 19.0286 12.892C19.0286 14.1482 18.0162 15.1666 16.7672 15.1666C15.5182 15.1666 14.5057 14.1482 14.5057 12.892C14.5057 11.6357 15.5182 10.6173 16.7672 10.6173ZM18.9858 0.567627C19.939 0.567627 20.7117 1.34874 20.7117 2.31228L20.7113 2.86254L17.5756 2.86302L17.5755 2.67985C17.5755 2.03749 17.0603 1.51675 16.4249 1.51675C16.2032 1.51675 15.9863 1.58145 15.8002 1.70308L11.8239 4.30134C11.2903 4.65007 11.1373 5.3701 11.4823 5.90956C11.5707 6.04781 11.6872 6.16551 11.8239 6.25488L14.5662 8.04708C12.7733 8.86013 11.5253 10.6735 11.5253 12.7801C11.5253 13.3924 11.6308 13.9799 11.8243 14.5253L1.72598 14.5248C0.77275 14.5248 0 13.7436 0 12.7801V2.31228C0 1.34874 0.77275 0.567627 1.72598 0.567627H18.9858ZM13.3142 9.95349L14.4915 11.1372L14.5229 11.1629C14.2458 11.5263 14.054 11.9588 13.9774 12.4303L13.9542 12.6089L13.9387 12.6076L12.253 12.6075C12.3149 11.5986 12.7037 10.6786 13.3142 9.95349ZM18.965 11.1037L20.1684 9.89316C20.766 10.5783 21.1622 11.4455 21.2641 12.4014L21.2814 12.6075L19.5956 12.6076L19.5802 12.6089C19.53 12.0983 19.3456 11.6274 19.0628 11.2325L18.965 11.1037ZM6.11141 10.4539H2.83811C2.54164 10.4539 2.30131 10.6943 2.30131 10.9907C2.30131 11.2644 2.50608 11.4902 2.77077 11.5234L2.83811 11.5275H6.11141C6.40788 11.5275 6.64821 11.2872 6.64821 10.9907C6.64821 10.6943 6.40788 10.4539 6.11141 10.4539ZM11.0336 10.4539H7.76035C7.46387 10.4539 7.22354 10.6943 7.22354 10.9907C7.22354 11.2644 7.42831 11.4902 7.693 11.5234L7.76035 11.5275H11.0336C11.3301 11.5275 11.5704 11.2872 11.5704 10.9907C11.5704 10.6943 11.3301 10.4539 11.0336 10.4539ZM16.4841 8.35145L16.4847 10.0566L16.4858 10.0626C15.8834 10.1224 15.3367 10.3725 14.9073 10.7525L14.8995 10.7437L14.8913 10.7351L13.7057 9.54326C14.4464 8.85787 15.4149 8.41786 16.4841 8.35145ZM17.0499 10.0503L17.0503 8.35145C18.022 8.41181 18.9108 8.78083 19.6208 9.36221L19.7701 9.49001L18.5674 10.6997C18.1885 10.3845 17.7264 10.1668 17.2193 10.0848L17.0486 10.0626L17.0499 10.0503ZM17.7021 7.69185L20.712 7.69239L20.7123 9.53712C19.9689 8.60432 18.9119 7.93529 17.7021 7.69185ZM16.4247 2.67985L16.4256 4.02606L24 4.02632V6.52992L16.4256 6.52962L16.4247 7.87639L12.4484 5.27811L16.4247 2.67985ZM5.17795 2.89382C4.83409 2.89382 4.52545 3.04627 4.3146 3.28796C4.10444 3.04627 3.79582 2.89382 3.45196 2.89382C2.81648 2.89382 2.30131 3.41455 2.30131 4.0569C2.30131 4.69926 2.81648 5.22001 3.45196 5.22001C3.79582 5.22001 4.10442 5.06754 4.31527 4.82585C4.52543 5.06754 4.83409 5.22001 5.17795 5.22001C5.81343 5.22001 6.3286 4.69926 6.3286 4.0569C6.3286 3.41455 5.81343 2.89382 5.17795 2.89382Z" fill="#838286"/>
</svg>
